# xmcd CD database file
#
# Track frame offsets:
#	150
#	20699
#	36913
#	62067
#	79874
#	96127
#	116598
#	135037
#	152885
#	177482
#	198057
#	219359
#	237838
#
# Disc length: 3405 seconds
#
# Revision: 0
# Processed by: cddbd v1.5.2PL0 Copyright (c) Steve Scherf et al.
# Submitted via: CDex 1.70beta2
#
DISCID=a60d4b0d
DTITLE=Rosenstolz - Kassengift
DYEAR=2002
DGENRE=New Age
TTITLE0=Kassengift
TTITLE1=Bastard
TTITLE2=Kinder der Nacht
TTITLE3=Amo Vitam
TTITLE4=Septembergrau
TTITLE5=Achterbahn
TTITLE6=Es ist vorbei
TTITLE7=Engel der Schwermut
TTITLE8=Du atmest nicht
TTITLE9=Total eclipse
TTITLE10=Die schwarze Witwe
TTITLE11=Sag doch
TTITLE12=Mir grauts vor diesen Leuten
EXTD=YEAR: 2002
EXTT0=
EXTT1=
EXTT2=
EXTT3=
EXTT4=
EXTT5=
EXTT6=
EXTT7=
EXTT8=
EXTT9=
EXTT10=
EXTT11=
EXTT12=
PLAYORDER=
